PathFileType	4	(X/Y/Z)	C:\Users\Basilio\Documents\Thesis Gigler\squatting_fais\c3dfiles\038\SLS_back_pre1\markers_experimental.trc
DataRate	CameraRate	NumFrames	NumMarkers	Units	OrigDataRate	OrigDataStartFrame	OrigNumFrames
200.000000	200.000000	4	63	mm	200.000000	362	1448
Frame#	Time	FHD			LBHD			RBHD			C7			T10			CLAV			LSHO			LUUPA			LMUPA			LDUPA			LLEP			LMEP			LUL			LRFIN			RSHO			RUPA1			RMUPA			RDUPA			RLEP			RMEP			RRAD			RUL			RUFIN			LASI			RASI			USACR			LSACR			RSACR			LTHI1			LTHI2			LTHI3			LTHI4			LLFC			LMFC			LTIB1			LTIB2			LTIB3			LTIB4			LLMAL			LMMAL			LHEE			LMT1			LMT2			LMT5			RTHI			RTHI2			RTHI3			RTHI4			RLFC			RMFC			RTIB1			RTIB2			RTIB3			RTIB4			RLMAL			RMMAL			RHEE			RMT1			RMT2			RMT5			LRAD			*61			*62			
		X1	Y1	Z1	X2	Y2	Z2	X3	Y3	Z3	X4	Y4	Z4	X5	Y5	Z5	X6	Y6	Z6	X7	Y7	Z7	X8	Y8	Z8	X9	Y9	Z9	X10	Y10	Z10	X11	Y11	Z11	X12	Y12	Z12	X13	Y13	Z13	X14	Y14	Z14	X15	Y15	Z15	X16	Y16	Z16	X17	Y17	Z17	X18	Y18	Z18	X19	Y19	Z19	X20	Y20	Z20	X21	Y21	Z21	X22	Y22	Z22	X23	Y23	Z23	X24	Y24	Z24	X25	Y25	Z25	X26	Y26	Z26	X27	Y27	Z27	X28	Y28	Z28	X29	Y29	Z29	X30	Y30	Z30	X31	Y31	Z31	X32	Y32	Z32	X33	Y33	Z33	X34	Y34	Z34	X35	Y35	Z35	X36	Y36	Z36	X37	Y37	Z37	X38	Y38	Z38	X39	Y39	Z39	X40	Y40	Z40	X41	Y41	Z41	X42	Y42	Z42	X43	Y43	Z43	X44	Y44	Z44	X45	Y45	Z45	X46	Y46	Z46	X47	Y47	Z47	X48	Y48	Z48	X49	Y49	Z49	X50	Y50	Z50	X51	Y51	Z51	X52	Y52	Z52	X53	Y53	Z53	X54	Y54	Z54	X55	Y55	Z55	X56	Y56	Z56	X57	Y57	Z57	X58	Y58	Z58	X59	Y59	Z59	X60	Y60	Z60	X61	Y61	Z61	X62	Y62	Z62	X63	Y63	Z63	

363	1.81	-241.1000671386719	1766.399780273438	-1081.256469726563	-393.5849914550782	1703.741333007813	-1139.829345703125	-382.5918579101563	1690.4482421875	-995.6109619140627	-426.3576965332032	1524.125366210938	-1062.052001953125	-406.7535095214845	1244.086547851563	-1031.990844726563	-283.5081787109376	1507.330078125	-1078.293212890625	-356.8438110351563	1534.918823242188	-1218.3720703125	-205.5659790039063	1467.749633789063	-1360.300659179688	-176.3971862792969	1503.65869140625	-1339.232421875	-138.4771423339844	1476.79345703125	-1376.565307617188	-75.90716552734376	1481.955932617188	-1385.389526367188	-61.89311981201173	1408.721923828125	-1360.737060546875	219.2373504638672	1505.771118164063	-1349.216552734375	281.5966186523438	1523.80419921875	-1258.905639648438	-322.9594726562501	1539.50146484375	-932.5464477539065	-166.085922241211	1511.80859375	-812.1809082031252	-130.2059783935547	1520.7060546875	-844.1546020507815	-98.9377136230469	1507.651977539063	-794.1495361328127	-25.57394981384278	1505.559448242188	-782.9101562500002	-19.6661548614502	1426.575439453125	-797.3735961914065	250.2095642089844	1494.058227539063	-866.568298339844	262.6626281738282	1516.798828125	-800.7871093750002	327.8492126464844	1531.234985351563	-879.2089843750002	-226.7297821044922	1055.166137695313	-1133.255859375	-244.0208435058594	1079.18212890625	-883.6368408203127	-405.4793701171876	1110.95458984375	-1018.647338867188	-416.0982055664064	1080.322509765625	-1045.329467773438	-419.0384826660157	1082.9228515625	-988.7493896484377	-256.7917480468751	734.4047241210939	-1167.317016601563	-225.6938934326172	656.0147094726564	-1154.995849609375	-179.9872283935547	662.9872436523439	-1132.885986328125	-253.3388214111329	607.6288452148439	-1134.190795898438	-250.7885437011719	546.0978393554689	-1121.331787109375	-241.6487731933594	546.0560302734376	-1002.689880371094	-240.1516876220704	359.3493041992188	-1034.916625976563	-290.4301147460938	319.0142211914063	-1096.246215820313	-255.7847137451172	311.4703369140626	-1067.29248046875	-279.7604370117188	238.088119506836	-1031.690551757813	-382.2412414550782	118.2765884399414	-1040.025756835938	-340.3454589843751	135.8510284423828	-970.1707763671877	-432.8181457519532	100.8909759521485	-982.738708496094	-234.1438293457032	48.32292556762697	-975.948913574219	-226.1721649169922	44.85423278808594	-1026.328857421875	-271.8886108398438	33.30875778198243	-1073.433959960938	-265.7416381835938	805.7335205078127	-809.349304199219	-224.4785766601563	753.4867553710939	-798.8770751953127	-191.5283203125	757.0861206054689	-802.819519042969	-245.4295043945313	670.1047363281251	-806.3254394531252	-235.9129486083985	563.3721923828126	-815.814392089844	-229.1551818847657	552.1213378906251	-927.9326782226565	-337.3959350585938	424.1397094726564	-841.7608642578127	-450.4482421875001	445.644256591797	-825.0311279296877	-420.8491210937501	408.6264038085939	-826.1565551757815	-452.8203430175782	369.7021789550782	-858.1314086914065	-586.9136352539064	360.5268859863282	-847.9836425781252	-557.2542114257814	327.7263183593751	-920.0098266601565	-623.8447875976564	398.4682006835939	-925.2536621093752	-600.8949584960939	185.60986328125	-894.139343261719	-610.1356201171876	188.9207000732422	-847.1665649414065	-648.3244628906251	229.8425750732422	-816.316589355469	nan	nan	nan	nan	nan	nan	nan	nan	nan	
364	1.815	-241.1282348632813	1765.893188476563	-1081.200317382813	-393.6039428710939	1703.68603515625	-1139.893310546875	-382.5600280761719	1690.414184570313	-995.6857910156252	-426.2691650390626	1524.069091796875	-1062.08837890625	-406.7603149414064	1244.015869140625	-1031.991455078125	-283.5641479492188	1507.24609375	-1078.307250976563	-356.8032531738282	1534.804565429688	-1218.385498046875	-205.5759582519532	1467.605712890625	-1360.346313476563	-176.3683013916016	1503.546630859375	-1339.307983398438	-138.5176696777344	1476.730712890625	-1376.578125	-75.93482208251955	1481.8818359375	-1385.422607421875	-61.85268020629884	1408.604736328125	-1360.725830078125	219.2323760986329	1505.796875	-1349.209350585938	281.5805969238282	1523.767578125	-1258.909545898438	-322.9549560546876	1539.460205078125	-932.5728149414065	-166.0349731445313	1511.73974609375	-812.250915527344	-130.2079162597657	1520.71728515625	-844.2236328125002	-98.8472595214844	1507.674072265625	-794.148620605469	-25.53743171691895	1505.531616210938	-782.927673339844	-19.640625	1426.509765625	-797.4424438476565	250.2736206054688	1494.047485351563	-866.596618652344	262.7879943847657	1516.84326171875	-800.7844238281252	327.8758544921876	1531.227172851563	-879.2197265625002	-226.7380676269532	1055.08349609375	-1133.207885742188	-243.9310150146485	1079.086059570313	-883.627624511719	-405.4805603027345	1110.964721679688	-1018.634094238281	-416.0804748535157	1080.247436523438	-1045.330322265625	-418.9883728027345	1082.813110351563	-988.7561645507815	-256.7041320800782	734.3662109375001	-1167.47607421875	-225.5399932861329	655.9378051757814	-1155.064453125	-179.89404296875	662.9849243164064	-1132.939697265625	-253.1827087402344	607.5720214843751	-1134.255859375	-250.6129608154297	546.0739746093751	-1121.377319335938	-241.529037475586	545.9534301757814	-1002.790344238281	-240.0076751708985	359.2046203613282	-1034.961059570313	-290.2453308105469	318.9595947265626	-1096.250366210938	-255.6622924804688	311.4216003417969	-1067.279296875	-279.6981201171876	238.0692138671876	-1031.6875	-382.2664794921876	118.3266677856446	-1039.991821289063	-340.3274536132813	135.8031616210938	-970.1668701171877	-432.8246154785157	100.9305191040039	-982.6823730468752	-234.1591033935547	48.34981536865236	-976.0267333984377	-226.2010498046876	44.82342529296876	-1026.355224609375	-271.8847351074219	33.34089279174805	-1073.434448242188	-265.7845153808594	805.6910400390627	-809.292907714844	-224.3759155273438	753.6770019531251	-798.6367797851565	-191.341064453125	757.4551391601564	-802.5169677734377	-245.5127105712891	670.2024536132814	-806.3044433593752	-235.947006225586	563.3512573242189	-815.7283935546877	-229.1215362548829	552.0155029296876	-927.8621826171877	-337.4366149902344	424.0028381347657	-841.5773925781252	-450.4720153808595	445.6365356445314	-824.912536621094	-420.897430419922	408.4926147460939	-826.064880371094	-453.6006164550782	368.9682006835938	-858.6921386718752	-587.0104980468751	360.5340270996094	-847.8687744140627	-557.3212890625001	327.6690063476563	-919.8328247070315	-623.8954467773439	398.4554748535157	-925.1499023437502	-600.9937744140626	185.5697479248047	-894.0466308593752	-610.2183837890626	188.8992462158203	-847.1464843750002	-648.3867187500001	229.8583068847657	-816.2509765625002	nan	nan	nan	nan	nan	nan	nan	nan	nan	
365	1.82	-241.080307006836	1765.841064453125	-1081.264404296875	-393.5985412597657	1703.636352539063	-1139.975463867188	-382.4950866699219	1690.410278320313	-995.7402954101565	-426.2054138183595	1523.975341796875	-1062.127319335938	-406.7227172851564	1243.949096679688	-1031.943603515625	-283.5914916992188	1507.144287109375	-1078.357177734375	-356.8227539062501	1534.758666992188	-1218.380126953125	-205.5521850585938	1467.561401367188	-1360.338012695313	-176.3508605957032	1503.49462890625	-1339.370239257813	-138.499755859375	1476.633422851563	-1376.626098632813	-75.83109283447267	1481.774658203125	-1385.53955078125	-61.64429855346681	1408.392578125	-1360.708374023438	219.2675476074219	1505.72900390625	-1349.23681640625	281.5454711914063	1523.803588867188	-1258.928466796875	-322.8967895507813	1539.412109375	-932.6165161132815	-166.0456695556641	1511.698364257813	-812.2591552734377	-130.1443481445313	1520.704833984375	-844.234558105469	-98.82795715332034	1507.66357421875	-794.2075195312502	-25.51416587829591	1505.58154296875	-782.9385986328127	-19.60759353637696	1426.488891601563	-797.490905761719	250.2711791992188	1494.157470703125	-866.5713500976565	262.7901611328126	1516.917846679688	-800.8050537109377	327.9557495117188	1531.3125	-879.2139892578127	-226.8031158447266	1055.042114257813	-1133.231079101563	-243.9284973144532	1079.037963867188	-883.6627197265627	-405.5285644531251	1110.902465820313	-1018.586364746094	-416.1102905273439	1080.161254882813	-1045.323486328125	-419.045379638672	1082.788696289063	-988.7556152343752	-256.5453491210938	734.2838134765626	-1167.491455078125	-225.3455810546876	655.9225463867189	-1155.063110351563	-179.7865295410157	662.9804077148439	-1132.98974609375	-253.0248718261719	607.5101928710939	-1134.29736328125	-250.4286041259766	546.0100097656251	-1121.466430664063	-241.1346740722657	545.9351806640626	-1002.9560546875	-239.8540802001954	359.1304931640626	-1034.983276367188	-290.1828002929688	318.8949584960938	-1096.259643554688	-255.4902038574219	311.4109191894532	-1067.310180664063	-279.6252441406251	238.0256805419922	-1031.621948242188	-382.2296447753907	118.3871612548828	-1039.98193359375	-340.3140563964844	135.8010559082032	-970.055603027344	-432.8240966796876	100.9263305664063	-982.6844482421877	-234.1314392089844	48.33266448974611	-976.038513183594	-226.1915740966797	44.75219345092774	-1026.340209960938	-271.8878479003907	33.3301010131836	-1073.380981445313	-265.8081665039063	805.6551513671877	-809.2386474609377	-224.3844299316407	753.6395874023439	-798.5474243164065	-191.3871154785157	757.3816528320314	-802.4752197265627	-245.5064697265626	670.1386108398439	-806.2585449218752	-236.0021209716797	563.2891845703126	-815.6177368164065	-229.2508087158204	551.9664916992189	-927.807800292969	-337.5594482421876	423.9360351562501	-841.448181152344	-450.5665893554689	445.5943298339845	-824.8012695312502	-420.9426269531251	408.4681701660157	-825.9863281250002	-452.9594726562501	369.6357421875001	-857.984802246094	-587.0458374023439	360.5232849121094	-847.789489746094	-557.4113769531251	327.5909729003907	-919.6814575195315	-624.0035400390626	398.4296875000001	-925.041198730469	-601.1180419921876	185.6617431640625	-894.0391235351565	-610.2425537109376	188.9232635498047	-847.0397949218752	-648.5075683593751	229.8828125000001	-816.0715332031252	nan	nan	nan	nan	nan	nan	nan	nan	nan	
366	1.825	-241.0229797363282	1765.729125976563	-1081.3251953125	-393.6029663085939	1703.5107421875	-1140.008178710938	-382.4852294921876	1690.363891601563	-995.8212890625002	-426.2337036132814	1523.913452148438	-1062.148193359375	-406.8204040527345	1243.83837890625	-1031.950073242188	-283.4914855957032	1507.071166992188	-1078.402709960938	-356.8505859375001	1534.59521484375	-1218.4248046875	-205.5291595458985	1467.481323242188	-1360.34521484375	-176.3255310058594	1503.386596679688	-1339.370727539063	-138.4922943115235	1476.51611328125	-1376.609497070313	-75.86121368408205	1481.697387695313	-1385.546630859375	-61.58483505249025	1408.247802734375	-1360.77001953125	219.2338104248047	1505.747802734375	-1349.240356445313	281.5584716796876	1523.850830078125	-1258.938110351563	-322.9020996093751	1539.367309570313	-932.6298828125002	-165.994857788086	1511.6328125	-812.3529052734377	-130.1447143554688	1520.715942382813	-844.2858886718752	-98.73059844970706	1507.628173828125	-794.249694824219	-25.45591163635255	1505.593139648438	-782.9617309570315	-19.59473609924317	1426.505737304688	-797.476257324219	250.3014678955079	1494.170043945313	-866.5950317382815	262.8561096191407	1516.909912109375	-800.8319091796877	328.0070800781251	1531.406372070313	-879.243103027344	-226.5553436279297	1055.342407226563	-1133.2041015625	-243.8837127685547	1078.995727539063	-883.626892089844	-405.506317138672	1110.912475585938	-1018.622680664063	-416.0938415527345	1080.13134765625	-1045.267211914063	-418.8529357910157	1082.755981445313	-988.6675415039065	-256.3940124511719	734.1945190429689	-1167.507446289063	-225.2448425292969	655.8649902343751	-1155.06689453125	-179.6946105957032	662.9323120117189	-1132.949096679688	-252.8988342285157	607.4017333984376	-1134.351684570313	-250.2312469482422	545.9316406250001	-1121.483154296875	-240.8297119140626	545.7663574218751	-1003.044982910156	-239.790023803711	359.0827941894532	-1035.010620117188	-290.0777587890626	318.8777160644532	-1096.2236328125	-255.3936004638672	311.3838500976563	-1067.27490234375	-279.5336914062501	237.9712677001954	-1031.598266601563	-382.1478271484376	118.4361724853516	-1039.94140625	-340.2652893066407	135.7856140136719	-970.0189208984377	-432.8255310058595	100.942008972168	-982.6702270507815	-234.1462402343751	48.26513290405275	-976.0357055664065	-226.1624450683594	44.75704574584962	-1026.309936523438	-271.8318786621094	33.3591537475586	-1073.421264648438	-265.7578125000001	805.6596679687502	-809.1751098632815	-224.4248046875001	753.5407104492189	-798.452575683594	-191.4481353759766	757.2939453125001	-802.3809814453127	-245.5650634765626	669.9310302734376	-806.1256103515627	-236.1024932861329	563.2453002929689	-815.5836181640627	-229.2283477783204	551.8739013671876	-927.7263793945315	-337.6357421875001	423.9124145507814	-841.2905273437502	-450.6282348632814	445.5554504394532	-824.6972656250002	-420.9817504882814	408.4247436523439	-825.880310058594	-453.7232055664064	368.8996887207032	-858.5184326171877	-587.1121826171876	360.5489501953126	-847.634216308594	-557.5382690429689	327.6607055664063	-919.5327148437502	-624.0554199218751	398.408416748047	-924.9777832031252	-601.1421508789064	185.755844116211	-893.9287109375002	-610.3040161132814	188.9201965332032	-847.0241699218752	-648.6348876953126	229.8821563720704	-815.975524902344	nan	nan	nan	nan	nan	nan	nan	nan	nan	
